<svg width="767" height="396" viewBox="0 0 767 396" fill="none" xmlns="http://www.w3.org/2000/svg">
<g filter="url(#filter0_di_1_2)">
<path d="M507.649 136H543.918C545.022 136 545.918 136.895 545.918 138V141.155C545.918 142.237 545.04 143.115 543.957 143.115C542.884 143.115 542.01 143.978 541.996 145.051L540.747 245.232C540.733 246.346 541.632 247.257 542.747 247.257H543.918C545.022 247.257 545.918 248.152 545.918 249.257V253.725V258.193C545.918 259.298 545.022 260.193 543.918 260.193H542.967C541.771 260.193 540.835 261.242 541.059 262.416C542.971 272.432 549.045 274.066 552.96 273.464C553.812 273.333 554.361 272.548 554.361 271.687V271.249C554.361 270.145 555.256 269.249 556.361 269.249H561.18H566.059C567.131 269.249 568 270.118 568 271.19C568 272.261 568.869 273.13 569.941 273.13H621.915C622.987 273.13 623.856 272.261 623.856 271.19C623.856 270.118 624.724 269.249 625.796 269.249H629C630.105 269.249 631 270.145 631 271.249V308C631 309.105 630.105 310 629 310H625.856C624.751 310 623.856 309.105 623.856 308V307.472C623.856 306.368 622.96 305.472 621.856 305.472H570C568.895 305.472 568 306.368 568 307.472V308C568 309.105 567.105 310 566 310H561.18H556.361C555.256 310 554.361 309.105 554.361 308V307.358C554.361 306.299 553.518 305.426 552.463 305.333C520.207 302.489 510.609 276.639 509.629 262.152C509.555 261.062 508.669 260.193 507.577 260.193H507C505.895 260.193 505 259.298 505 258.193V253.725V249.257C505 248.152 505.895 247.257 507 247.257H507.546C508.651 247.257 509.546 246.361 509.546 245.257V145.064C509.546 143.988 508.674 143.115 507.598 143.115C506.522 143.115 505.649 142.243 505.649 141.167V138C505.649 136.895 506.545 136 507.649 136Z" fill="#8FB8C6"/>
<path d="M545.918 253.725V258.193C545.918 259.298 545.022 260.193 543.918 260.193H542.967C541.771 260.193 540.835 261.242 541.059 262.416C542.971 272.432 549.045 274.066 552.96 273.464C553.812 273.333 554.361 272.548 554.361 271.687V271.249C554.361 270.145 555.256 269.249 556.361 269.249H561.18M545.918 253.725V249.257C545.918 248.152 545.022 247.257 543.918 247.257H542.747C541.632 247.257 540.733 246.346 540.747 245.232L541.996 145.051C542.01 143.978 542.884 143.115 543.957 143.115V143.115C545.04 143.115 545.918 142.237 545.918 141.155V138C545.918 136.895 545.022 136 543.918 136H507.649C506.545 136 505.649 136.895 505.649 138V141.167C505.649 142.243 506.522 143.115 507.598 143.115V143.115C508.674 143.115 509.546 143.988 509.546 145.064V245.257C509.546 246.361 508.651 247.257 507.546 247.257H507C505.895 247.257 505 248.152 505 249.257V253.725M545.918 253.725H505M505 253.725V258.193C505 259.298 505.895 260.193 507 260.193H507.577C508.669 260.193 509.555 261.062 509.629 262.152C510.609 276.639 520.207 302.489 552.463 305.333C553.518 305.426 554.361 306.299 554.361 307.358V308C554.361 309.105 555.256 310 556.361 310H561.18M561.18 269.249H566.059C567.131 269.249 568 270.118 568 271.19V271.19C568 272.261 568.869 273.13 569.941 273.13H621.915C622.987 273.13 623.856 272.261 623.856 271.19V271.19C623.856 270.118 624.724 269.249 625.796 269.249H629C630.105 269.249 631 270.145 631 271.249V308C631 309.105 630.105 310 629 310H625.856C624.751 310 623.856 309.105 623.856 308V307.472C623.856 306.368 622.96 305.472 621.856 305.472H570C568.895 305.472 568 306.368 568 307.472V308C568 309.105 567.105 310 566 310H561.18M561.18 269.249V310" stroke="black" stroke-width="2"/>
</g>
<g filter="url(#filter1_di_1_2)">
<path d="M215 302.494V305C215 306.105 214.105 307 213 307H176C174.895 307 174 306.105 174 305V302.542C174 301.437 174.895 300.542 176 300.542H176.556C177.66 300.542 178.556 299.646 178.556 298.542V177.25C178.556 176.145 177.66 175.25 176.556 175.25H176C174.895 175.25 174 174.355 174 173.25V168.469V163.688C174 162.583 174.895 161.688 176 161.688H178.556C179.355 157.194 182.345 154.425 185.714 152.792V138.5C185.714 137.395 186.61 136.5 187.714 136.5H192.873V132.688C192.873 131.583 191.978 130.688 190.873 130.688H177.302C176.197 130.688 175.302 129.792 175.302 128.688V124.937C175.302 123.833 176.197 122.938 177.302 122.938H189.952C190.487 122.938 190.921 122.504 190.921 121.969C190.921 121.434 191.354 121 191.889 121H197.111C197.646 121 198.079 121.434 198.079 121.969C198.079 122.504 198.513 122.938 199.048 122.938H211.698C212.803 122.938 213.698 123.833 213.698 124.937V128.688C213.698 129.792 212.803 130.688 211.698 130.688H198.778C197.673 130.688 196.778 131.583 196.778 132.688V136.5H201.286C202.39 136.5 203.286 137.395 203.286 138.5V152.363C208.316 154.739 209.794 159.117 209.794 161.688H213C214.105 161.688 215 162.583 215 163.688V168.469V173.298C215 174.376 214.126 175.25 213.048 175.25C211.969 175.25 211.095 176.124 211.095 177.202V298.589C211.095 299.668 211.969 300.542 213.048 300.542C214.126 300.542 215 301.416 215 302.494Z" fill="#A9D93E"/>
<path d="M178.556 161.687H176C174.895 161.687 174 162.583 174 163.687V168.469M178.556 161.687H209.794M178.556 161.687C179.355 157.194 182.345 154.425 185.714 152.792M215 168.469V163.687C215 162.583 214.105 161.687 213 161.687H209.794M215 168.469V173.298C215 174.376 214.126 175.25 213.048 175.25V175.25C211.969 175.25 211.095 176.124 211.095 177.202V298.589C211.095 299.668 211.969 300.542 213.048 300.542V300.542C214.126 300.542 215 301.416 215 302.494V305C215 306.105 214.105 307 213 307H176C174.895 307 174 306.105 174 305V302.542C174 301.437 174.895 300.542 176 300.542H176.556C177.66 300.542 178.556 299.646 178.556 298.542V177.25C178.556 176.145 177.66 175.25 176.556 175.25H176C174.895 175.25 174 174.355 174 173.25V168.469M215 168.469H174M209.794 161.687C209.794 159.117 208.316 154.739 203.286 152.363M203.286 152.363V138.5C203.286 137.395 202.39 136.5 201.286 136.5H192.873M203.286 152.363C202.333 151.913 201.253 151.534 200.032 151.254M185.714 152.792V138.5C185.714 137.395 186.61 136.5 187.714 136.5H192.873M185.714 152.792C186.994 152.171 188.329 151.715 189.619 151.39M200.032 151.254V141.729C200.032 140.625 199.136 139.729 198.032 139.729H196.778M200.032 151.254C199.042 151.026 197.96 150.863 196.778 150.777M189.619 151.39V141.729C189.619 140.625 190.514 139.729 191.619 139.729H192.873M189.619 151.39C190.762 151.102 191.869 150.918 192.873 150.814M196.778 136.5V132.687C196.778 131.583 197.673 130.687 198.778 130.687H211.698C212.803 130.687 213.698 129.792 213.698 128.687V124.937C213.698 123.833 212.803 122.937 211.698 122.937H199.048C198.513 122.937 198.079 122.504 198.079 121.969V121.969C198.079 121.434 197.646 121 197.111 121H191.889C191.354 121 190.921 121.434 190.921 121.969V121.969C190.921 122.504 190.487 122.937 189.952 122.937H177.302C176.197 122.937 175.302 123.833 175.302 124.937V128.687C175.302 129.792 176.197 130.687 177.302 130.687H190.873C191.978 130.687 192.873 131.583 192.873 132.687V136.5M196.778 139.729V150.777M196.778 139.729H192.873M196.778 150.777C196.155 150.732 195.505 150.708 194.825 150.708C194.243 150.708 193.584 150.741 192.873 150.814M192.873 139.729V150.814" stroke="black" stroke-width="2"/>
</g>
<g filter="url(#filter2_di_1_2)">
<path d="M483.189 127H485.749C486.853 127 487.749 127.895 487.749 129V165.791C487.749 166.896 486.853 167.791 485.749 167.791H483.246C482.142 167.791 481.246 166.896 481.246 165.791V165.259C481.246 164.154 480.351 163.259 479.246 163.259H430.576C429.472 163.259 428.576 164.154 428.576 165.259V165.791C428.576 166.896 427.681 167.791 426.576 167.791H421.424H416.271C415.166 167.791 414.271 166.896 414.271 165.791V165.259C414.271 164.154 413.376 163.259 412.271 163.259H403.444C403.293 163.259 403.144 163.274 402.998 163.314C400.345 164.027 395.694 167.099 395.395 174.321C395.351 175.378 396.248 176.209 397.307 176.209C398.412 176.209 399.315 177.104 399.315 178.209V183.007V187.855C399.315 188.932 398.442 189.806 397.365 189.806C396.287 189.806 395.414 190.679 395.414 191.756V198.165C395.414 199.27 396.309 200.165 397.414 200.165H412.271C413.376 200.165 414.271 199.27 414.271 198.165V197.633C414.271 196.529 415.166 195.633 416.271 195.633H421.424H426.576C427.681 195.633 428.576 196.529 428.576 197.633V198.165C428.576 199.27 429.472 200.165 430.576 200.165H471.443C472.548 200.165 473.443 199.27 473.443 198.165V197.633C473.443 196.529 474.339 195.633 475.443 195.633H479.246C480.351 195.633 481.246 196.529 481.246 197.633V235.072C481.246 236.177 480.351 237.072 479.246 237.072H475.062C474.168 237.072 473.443 236.347 473.443 235.453C473.443 234.559 472.719 233.835 471.825 233.835H430.195C429.301 233.835 428.576 234.559 428.576 235.453C428.576 236.347 427.852 237.072 426.958 237.072H421.424H416.271C415.166 237.072 414.271 236.177 414.271 235.072V234.54C414.271 233.435 413.376 232.54 412.271 232.54H397.414C396.309 232.54 395.414 233.435 395.414 234.54V240.301C395.414 241.378 396.287 242.252 397.365 242.252C398.442 242.252 399.315 243.125 399.315 244.203V248.403V252.554C399.315 253.659 398.42 254.554 397.315 254.554H397.147C396.153 254.554 395.296 255.285 395.272 256.279C395.123 262.285 398.371 271.113 412.56 269.663C413.544 269.563 414.271 268.715 414.271 267.725V266.914C414.271 265.809 415.166 264.914 416.271 264.914H421.424H426.576C427.681 264.914 428.576 265.809 428.576 266.914V267.446C428.576 268.551 429.472 269.446 430.576 269.446H480.604C481.677 269.446 482.547 268.576 482.547 267.504C482.547 266.431 483.416 265.561 484.489 265.561H489C490.105 265.561 491 266.457 491 267.561V305C491 306.105 490.105 307 489 307H484.547C483.442 307 482.547 306.105 482.547 305V303.82C482.547 302.716 481.651 301.82 480.547 301.82H430.576C429.472 301.82 428.576 302.716 428.576 303.82V305C428.576 306.105 427.681 307 426.576 307H421.424H416.271C415.166 307 414.271 306.105 414.271 305V303.82C414.271 302.716 413.383 301.824 412.279 301.777C395.378 301.067 365.194 291.288 363.611 256.545C363.561 255.452 362.673 254.554 361.579 254.554H361C359.895 254.554 359 253.659 359 252.554V248.403V244.252C359 243.147 359.895 242.252 361 242.252H361.552C362.656 242.252 363.552 241.356 363.552 240.252V191.806C363.552 190.701 362.656 189.806 361.552 189.806H361C359.895 189.806 359 188.91 359 187.806V183.007V178.209C359 177.104 359.895 176.209 361 176.209H361.552C362.656 176.209 363.547 175.322 363.612 174.219C364.487 159.476 375.115 133.266 412.347 130.981C413.409 130.915 414.271 130.043 414.271 128.98C414.271 127.886 415.157 127 416.251 127H421.424H426.634C427.707 127 428.576 127.87 428.576 128.942C428.576 130.015 429.446 130.885 430.519 130.885H479.304C480.377 130.885 481.246 130.015 481.246 128.942C481.246 127.87 482.116 127 483.189 127Z" fill="#FFD303"/>
<path d="M421.424 127H416.251C415.157 127 414.271 127.886 414.271 128.98V128.98C414.271 130.043 413.409 130.915 412.347 130.981C375.115 133.266 364.487 159.476 363.612 174.219C363.547 175.322 362.656 176.209 361.552 176.209H361C359.895 176.209 359 177.104 359 178.209V183.007M421.424 127H426.634C427.707 127 428.576 127.87 428.576 128.942V128.942C428.576 130.015 429.446 130.885 430.519 130.885H479.304C480.377 130.885 481.246 130.015 481.246 128.942V128.942C481.246 127.87 482.116 127 483.189 127H485.749C486.853 127 487.749 127.895 487.749 129V165.791C487.749 166.896 486.853 167.791 485.749 167.791H483.246C482.142 167.791 481.246 166.896 481.246 165.791V165.259C481.246 164.154 480.351 163.259 479.246 163.259H430.576C429.472 163.259 428.576 164.154 428.576 165.259V165.791C428.576 166.896 427.681 167.791 426.576 167.791H421.424M421.424 127V167.791M421.424 167.791H416.271C415.166 167.791 414.271 166.896 414.271 165.791V165.259C414.271 164.154 413.376 163.259 412.271 163.259H403.444C403.293 163.259 403.144 163.274 402.998 163.314C400.345 164.027 395.694 167.099 395.395 174.321C395.351 175.378 396.248 176.209 397.307 176.209V176.209C398.412 176.209 399.315 177.104 399.315 178.209V183.007M399.315 183.007V187.855C399.315 188.932 398.442 189.806 397.365 189.806V189.806C396.287 189.806 395.414 190.679 395.414 191.756V198.165C395.414 199.27 396.309 200.165 397.414 200.165H412.271C413.376 200.165 414.271 199.27 414.271 198.165V197.633C414.271 196.529 415.166 195.633 416.271 195.633H421.424M399.315 183.007H359M359 183.007V187.806C359 188.91 359.895 189.806 361 189.806H361.552C362.656 189.806 363.552 190.701 363.552 191.806V240.252C363.552 241.356 362.656 242.252 361.552 242.252H361C359.895 242.252 359 243.147 359 244.252V248.403M421.424 195.633H426.576C427.681 195.633 428.576 196.529 428.576 197.633V198.165C428.576 199.27 429.472 200.165 430.576 200.165H471.443C472.548 200.165 473.443 199.27 473.443 198.165V197.633C473.443 196.529 474.339 195.633 475.443 195.633H479.246C480.351 195.633 481.246 196.529 481.246 197.633V235.072C481.246 236.177 480.351 237.072 479.246 237.072H475.062C474.168 237.072 473.443 236.347 473.443 235.453V235.453C473.443 234.559 472.719 233.835 471.825 233.835H430.195C429.301 233.835 428.576 234.559 428.576 235.453V235.453C428.576 236.347 427.852 237.072 426.958 237.072H421.424M421.424 195.633V237.072M421.424 237.072H416.271C415.166 237.072 414.271 236.177 414.271 235.072V234.54C414.271 233.435 413.376 232.54 412.271 232.54H397.414C396.309 232.54 395.414 233.435 395.414 234.54V240.301C395.414 241.378 396.287 242.252 397.365 242.252V242.252C398.442 242.252 399.315 243.125 399.315 244.203V248.403M399.315 248.403V252.554C399.315 253.659 398.42 254.554 397.315 254.554H397.147C396.153 254.554 395.296 255.285 395.272 256.279C395.123 262.285 398.371 271.113 412.56 269.663C413.544 269.563 414.271 268.715 414.271 267.725V266.914C414.271 265.809 415.166 264.914 416.271 264.914H421.424M399.315 248.403H359M359 248.403V252.554C359 253.659 359.895 254.554 361 254.554H361.579C362.673 254.554 363.561 255.452 363.611 256.545C365.194 291.288 395.378 301.067 412.279 301.777C413.383 301.824 414.271 302.716 414.271 303.82V305C414.271 306.105 415.166 307 416.271 307H421.424M421.424 264.914H426.576C427.681 264.914 428.576 265.809 428.576 266.914V267.446C428.576 268.551 429.472 269.446 430.576 269.446H480.604C481.677 269.446 482.547 268.576 482.547 267.504V267.504C482.547 266.431 483.416 265.561 484.489 265.561H489C490.105 265.561 491 266.457 491 267.561V305C491 306.105 490.105 307 489 307H484.547C483.442 307 482.547 306.105 482.547 305V303.82C482.547 302.716 481.651 301.82 480.547 301.82H430.576C429.472 301.82 428.576 302.716 428.576 303.82V305C428.576 306.105 427.681 307 426.576 307H421.424M421.424 264.914V307" stroke="black" stroke-width="2"/>
</g>
<g filter="url(#filter3_di_1_2)">
<path d="M611.574 262H576.649C575.544 262 574.649 261.105 574.649 260V257.462C574.649 256.387 575.52 255.516 576.595 255.516C577.67 255.516 578.541 254.644 578.541 253.569V150.525C578.541 149.421 577.646 148.525 576.541 148.525H576C574.895 148.525 574 147.63 574 146.525V142.041V137.557C574 136.452 574.895 135.557 576 135.557H576.512C577.628 135.557 578.525 134.626 578.538 133.51C578.929 99.9058 601.477 90.5905 612.926 90.1667C636.659 87.6957 648.538 113.277 652.04 128.225C652.306 129.362 653.482 130.042 654.59 129.673C655.591 129.339 656.674 129.869 657.025 130.864L658.339 134.584L659.697 138.43C660.033 139.382 659.608 140.434 658.705 140.885L657.997 141.239C657.084 141.695 656.661 142.766 657.015 143.723L679.725 205.069C680.099 206.081 681.209 206.613 682.233 206.272L682.425 206.208C683.46 205.863 684.58 206.411 684.943 207.439L686.236 211.098L687.594 214.945C687.93 215.896 687.504 216.949 686.602 217.4L685.687 217.857C684.865 218.267 684.424 219.189 684.658 220.076C686.763 228.054 689.998 229.338 691.426 228.93C694.483 228.166 695.383 226.184 695.472 224.588C695.522 223.696 694.703 223.094 693.81 223.094H693.426C692.321 223.094 691.426 222.199 691.426 221.094V216.61V212.072C691.426 210.997 692.297 210.126 693.372 210.126C694.447 210.126 695.318 209.254 695.318 208.18V97.9488C695.318 96.8739 694.447 96.0026 693.372 96.0026C692.297 96.0026 691.426 95.1312 691.426 94.0563V92.1667C691.426 91.0621 692.321 90.1667 693.426 90.1667H729C730.105 90.1667 731 91.0621 731 92.1667V94.0026C731 95.1071 730.105 96.0026 729 96.0026H727.81C726.705 96.0026 725.81 96.898 725.81 98.0026V208.126C725.81 209.23 726.705 210.126 727.81 210.126H729C730.105 210.126 731 211.021 731 212.126V216.61V221.094C731 222.199 730.105 223.094 729 223.094H727.744C726.666 223.094 725.784 223.964 725.717 225.041C723.886 254.545 703.532 262 693.372 262C670.868 262 660.046 242.412 656.886 230.931C656.586 229.842 655.485 229.157 654.388 229.431L652.999 229.778C651.985 230.031 650.947 229.462 650.617 228.471L649.256 224.391L647.859 220.201C647.544 219.257 647.972 218.225 648.862 217.78L649.588 217.417C650.505 216.959 650.927 215.881 650.565 214.921L627.798 154.651C627.452 153.736 626.494 153.205 625.534 153.397C624.612 153.581 623.686 153.099 623.309 152.238L621.684 148.525L620.222 145.184C619.776 144.167 620.245 142.981 621.266 142.544L622.211 142.139C623.189 141.721 623.668 140.61 623.301 139.612L616.872 122.086C616.836 121.989 616.791 121.891 616.739 121.801C614.371 117.696 611.49 119.618 610.038 121.451C609.793 121.76 609.682 122.15 609.682 122.545V133.557C609.682 134.661 610.577 135.557 611.682 135.557H612.223C613.328 135.557 614.223 136.452 614.223 137.557V142.041V146.525C614.223 147.63 613.328 148.525 612.223 148.525H611.682C610.577 148.525 609.682 149.421 609.682 150.525V253.569C609.682 254.644 610.553 255.516 611.628 255.516C612.703 255.516 613.574 256.387 613.574 257.462V260C613.574 261.105 612.679 262 611.574 262Z" fill="#E87536"/>
<path d="M658.339 134.584L659.697 138.43C660.033 139.382 659.608 140.434 658.705 140.885L657.997 141.239C657.084 141.695 656.661 142.766 657.015 143.723L679.725 205.069C680.099 206.081 681.209 206.613 682.233 206.272L682.425 206.208C683.46 205.863 684.58 206.411 684.943 207.439L686.236 211.098M658.339 134.584L657.025 130.864C656.674 129.869 655.591 129.339 654.59 129.673V129.673C653.482 130.042 652.306 129.362 652.04 128.225C648.538 113.277 636.659 87.6957 612.926 90.1667C601.477 90.5905 578.929 99.9058 578.538 133.51C578.525 134.626 577.628 135.557 576.512 135.557H576C574.895 135.557 574 136.452 574 137.557V142.041M658.339 134.584L621.684 148.525M621.684 148.525L620.222 145.184C619.776 144.167 620.245 142.981 621.266 142.544L622.211 142.139C623.189 141.721 623.668 140.61 623.301 139.612L616.872 122.086C616.836 121.989 616.791 121.891 616.739 121.801C614.371 117.696 611.49 119.618 610.038 121.451C609.793 121.76 609.682 122.15 609.682 122.545V133.557C609.682 134.661 610.577 135.557 611.682 135.557H612.223C613.328 135.557 614.223 136.452 614.223 137.557V142.041M621.684 148.525L623.309 152.238C623.686 153.099 624.612 153.581 625.534 153.397V153.397C626.494 153.205 627.452 153.736 627.798 154.651L650.565 214.921C650.927 215.881 650.505 216.959 649.588 217.417L648.862 217.78C647.972 218.225 647.544 219.257 647.859 220.201L649.256 224.391M614.223 142.041V146.525C614.223 147.63 613.328 148.525 612.223 148.525H611.682C610.577 148.525 609.682 149.421 609.682 150.525V253.569C609.682 254.644 610.553 255.516 611.628 255.516V255.516C612.703 255.516 613.574 256.387 613.574 257.462V260C613.574 261.105 612.679 262 611.574 262H576.649C575.544 262 574.649 261.105 574.649 260V257.462C574.649 256.387 575.52 255.516 576.595 255.516V255.516C577.67 255.516 578.541 254.644 578.541 253.569V150.525C578.541 149.421 577.646 148.525 576.541 148.525H576C574.895 148.525 574 147.63 574 146.525V142.041M614.223 142.041H574M686.236 211.098L687.594 214.945C687.93 215.896 687.504 216.949 686.602 217.4L685.687 217.857C684.865 218.267 684.424 219.189 684.658 220.076C686.763 228.054 689.998 229.338 691.426 228.93C694.483 228.166 695.383 226.184 695.472 224.588C695.522 223.696 694.703 223.094 693.81 223.094H693.426C692.321 223.094 691.426 222.199 691.426 221.094V216.61M686.236 211.098L649.256 224.391M649.256 224.391L650.617 228.471C650.947 229.462 651.985 230.032 652.999 229.778L654.388 229.431C655.485 229.157 656.586 229.842 656.886 230.931C660.046 242.412 670.868 262 693.372 262C703.532 262 723.886 254.545 725.717 225.041C725.784 223.964 726.666 223.094 727.744 223.094H729C730.105 223.094 731 222.199 731 221.094V216.61M731 216.61V212.126C731 211.021 730.105 210.126 729 210.126H727.81C726.705 210.126 725.81 209.23 725.81 208.126V98.0026C725.81 96.898 726.705 96.0026 727.81 96.0026H729C730.105 96.0026 731 95.1071 731 94.0026V92.1667C731 91.0621 730.105 90.1667 729 90.1667H693.426C692.321 90.1667 691.426 91.0621 691.426 92.1667V94.0563C691.426 95.1312 692.297 96.0026 693.372 96.0026V96.0026C694.447 96.0026 695.318 96.8739 695.318 97.9488V208.18C695.318 209.254 694.447 210.126 693.372 210.126V210.126C692.297 210.126 691.426 210.997 691.426 212.072V216.61M731 216.61H691.426" stroke="black" stroke-width="2"/>
</g>
<g filter="url(#filter4_di_1_2)">
<path fill-rule="evenodd" clip-rule="evenodd" d="M75.8401 264.567V262.029C75.8401 261.313 75.2596 260.733 74.5436 260.733C73.8276 260.733 73.2471 260.152 73.2471 259.436V199.852C73.2471 198.747 74.1425 197.852 75.2471 197.852H88.75C89.8546 197.852 90.75 198.747 90.75 199.852V200.39C90.75 201.494 91.6454 202.39 92.75 202.39H97.5567H102.363C103.468 202.39 104.363 201.494 104.363 200.39V199.852C104.363 198.747 105.283 197.854 106.387 197.828C145.415 196.898 155.37 169.067 155.602 153.253C155.619 152.116 156.523 151.177 157.661 151.177H158.113C159.218 151.177 160.113 150.282 160.113 149.177V144.695V140.212C160.113 139.108 159.218 138.212 158.113 138.212H157.526C156.441 138.212 155.556 137.324 155.499 136.24C153.525 98.6579 123.025 90.6915 105.889 91.3968C104.715 91.4451 103.715 90.5254 103.715 89.3503V89C103.715 87.8954 102.82 87 101.715 87H96.9084H92.1017C90.9972 87 90.1017 87.8954 90.1017 89V89.5126C90.1017 90.627 89.1676 91.5236 88.0534 91.5383C50.0169 92.0401 40.3569 120.13 40.1576 136.138C40.1434 137.274 39.239 138.212 38.1022 138.212H37.6483C36.5437 138.212 35.6483 139.108 35.6483 140.212V144.695V149.177C35.6483 150.282 36.5437 151.177 37.6483 151.177H38.186C39.2906 151.177 40.186 152.073 40.186 153.177V258.733C40.186 259.837 39.2906 260.733 38.186 260.733H37C35.8954 260.733 35 261.628 35 262.733V264.567C35 265.671 35.8954 266.567 37 266.567H73.8401C74.9447 266.567 75.8401 265.671 75.8401 264.567ZM91.9189 127.262H101.881C102.986 127.262 103.881 126.366 103.881 125.262V124.654C103.881 123.549 104.777 122.654 105.881 122.654H121.163C122.267 122.654 123.163 123.549 123.163 124.654V135.799C123.163 136.9 122.27 137.793 121.168 137.793C120.067 137.793 119.174 138.686 119.174 139.788V149.622C119.174 150.723 120.067 151.616 121.168 151.616C122.27 151.616 123.163 152.509 123.163 153.611V163.439C123.163 164.544 122.267 165.439 121.163 165.439H106.546C105.442 165.439 104.546 164.544 104.546 163.439V162.173C104.546 161.069 103.651 160.173 102.546 160.173H91.254C90.1495 160.173 89.254 161.069 89.254 162.173V163.439C89.254 164.544 88.3586 165.439 87.254 165.439H73.3023C72.1978 165.439 71.3023 164.544 71.3023 163.439V153.616C71.3023 152.512 72.1978 151.616 73.3023 151.616H73.9565C75.061 151.616 75.9565 150.721 75.9565 149.616V139.793C75.9565 138.689 75.061 137.793 73.9565 137.793H73.3023C72.1978 137.793 71.3023 136.898 71.3023 135.793V124.654C71.3023 123.549 72.1978 122.654 73.3023 122.654H87.9189C89.0235 122.654 89.9189 123.549 89.9189 124.654V125.262C89.9189 126.366 90.8143 127.262 91.9189 127.262Z" fill="#D86454"/>
<path d="M106.387 197.828L106.363 196.828L106.387 197.828ZM155.602 153.253L154.602 153.238L155.602 153.253ZM155.499 136.24L156.498 136.188V136.188L155.499 136.24ZM105.889 91.3968L105.93 92.3959L105.889 91.3968ZM88.0534 91.5383L88.0665 92.5382L88.0534 91.5383ZM40.1576 136.138L39.1577 136.125L40.1576 136.138ZM74.8401 262.029V264.567H76.8401V262.029H74.8401ZM74.5436 261.733C74.7074 261.733 74.8401 261.865 74.8401 262.029H76.8401C76.8401 260.761 75.8119 259.733 74.5436 259.733V261.733ZM72.2471 259.436C72.2471 260.704 73.2753 261.733 74.5436 261.733V259.733C74.3798 259.733 74.2471 259.6 74.2471 259.436H72.2471ZM72.2471 199.852V259.436H74.2471V199.852H72.2471ZM75.2471 196.852C73.5902 196.852 72.2471 198.195 72.2471 199.852H74.2471C74.2471 199.299 74.6948 198.852 75.2471 198.852V196.852ZM88.75 196.852H75.2471V198.852H88.75V196.852ZM91.75 199.852C91.75 198.195 90.4069 196.852 88.75 196.852V198.852C89.3023 198.852 89.75 199.299 89.75 199.852H91.75ZM91.75 200.39V199.852H89.75V200.39H91.75ZM92.75 201.39C92.1977 201.39 91.75 200.942 91.75 200.39H89.75C89.75 202.046 91.0932 203.39 92.75 203.39V201.39ZM97.5567 201.39H92.75V203.39H97.5567V201.39ZM102.363 201.39H97.5567V203.39H102.363V201.39ZM103.363 200.39C103.363 200.942 102.916 201.39 102.363 201.39V203.39C104.02 203.39 105.363 202.046 105.363 200.39H103.363ZM103.363 199.852V200.39H105.363V199.852H103.363ZM106.363 196.828C104.747 196.867 103.363 198.174 103.363 199.852H105.363C105.363 199.32 105.819 198.842 106.411 198.828L106.363 196.828ZM154.602 153.238C154.489 160.973 151.992 171.65 144.768 180.489C137.575 189.293 125.615 196.37 106.363 196.828L106.411 198.828C126.187 198.357 138.718 191.054 146.317 181.755C153.886 172.493 156.483 161.348 156.602 153.268L154.602 153.238ZM157.661 150.177C155.947 150.177 154.627 151.584 154.602 153.238L156.602 153.268C156.611 152.647 157.099 152.177 157.661 152.177V150.177ZM158.113 150.177H157.661V152.177H158.113V150.177ZM159.113 149.177C159.113 149.73 158.666 150.177 158.113 150.177V152.177C159.77 152.177 161.113 150.834 161.113 149.177H159.113ZM159.113 144.695V149.177H161.113V144.695H159.113ZM159.113 140.212V144.695H161.113V140.212H159.113ZM158.113 139.212C158.666 139.212 159.113 139.66 159.113 140.212H161.113C161.113 138.555 159.77 137.212 158.113 137.212V139.212ZM157.526 139.212H158.113V137.212H157.526V139.212ZM154.5 136.293C154.584 137.875 155.877 139.212 157.526 139.212V137.212C157.004 137.212 156.528 136.772 156.498 136.188L154.5 136.293ZM105.93 92.3959C114.351 92.0493 126.037 93.8399 135.829 100.296C145.571 106.717 153.53 117.81 154.5 136.293L156.498 136.188C155.494 117.088 147.216 105.406 136.93 98.6258C126.695 91.8789 114.563 90.0389 105.848 90.3976L105.93 92.3959ZM102.715 89.3503C102.715 91.1189 104.213 92.4666 105.93 92.3959L105.848 90.3976C105.216 90.4236 104.715 89.9319 104.715 89.3503H102.715ZM102.715 89V89.3503H104.715V89H102.715ZM101.715 88C102.267 88 102.715 88.4477 102.715 89H104.715C104.715 87.3431 103.372 86 101.715 86V88ZM96.9084 88H101.715V86H96.9084V88ZM92.1017 88H96.9084V86H92.1017V88ZM91.1017 89C91.1017 88.4477 91.5495 88 92.1017 88V86C90.4449 86 89.1017 87.3431 89.1017 89H91.1017ZM91.1017 89.5126V89H89.1017V89.5126H91.1017ZM88.0665 92.5382C89.6961 92.5167 91.1017 91.2053 91.1017 89.5126H89.1017C89.1017 90.0486 88.6391 90.5304 88.0402 90.5383L88.0665 92.5382ZM41.1575 136.15C41.2551 128.31 43.675 117.517 50.7005 108.644C57.6937 99.812 69.3251 92.7854 88.0665 92.5382L88.0402 90.5383C68.7452 90.7929 56.5283 98.0621 49.1325 107.402C41.7692 116.702 39.2594 127.957 39.1577 136.125L41.1575 136.15ZM38.1022 139.212C39.8143 139.212 41.1369 137.806 41.1575 136.15L39.1577 136.125C39.15 136.743 38.6637 137.212 38.1022 137.212V139.212ZM37.6483 139.212H38.1022V137.212H37.6483V139.212ZM36.6483 140.212C36.6483 139.66 37.096 139.212 37.6483 139.212V137.212C35.9914 137.212 34.6483 138.555 34.6483 140.212H36.6483ZM36.6483 144.695V140.212H34.6483V144.695H36.6483ZM36.6483 149.177V144.695H34.6483V149.177H36.6483ZM37.6483 150.177C37.096 150.177 36.6483 149.73 36.6483 149.177H34.6483C34.6483 150.834 35.9914 152.177 37.6483 152.177V150.177ZM38.186 150.177H37.6483V152.177H38.186V150.177ZM41.186 153.177C41.186 151.52 39.8429 150.177 38.186 150.177V152.177C38.7383 152.177 39.186 152.625 39.186 153.177H41.186ZM41.186 258.733V153.177H39.186V258.733H41.186ZM38.186 261.733C39.8429 261.733 41.186 260.389 41.186 258.733H39.186C39.186 259.285 38.7383 259.733 38.186 259.733V261.733ZM37 261.733H38.186V259.733H37V261.733ZM36 262.733C36 262.18 36.4477 261.733 37 261.733V259.733C35.3431 259.733 34 261.076 34 262.733H36ZM36 264.567V262.733H34V264.567H36ZM37 265.567C36.4477 265.567 36 265.119 36 264.567H34C34 266.224 35.3431 267.567 37 267.567V265.567ZM73.8401 265.567H37V267.567H73.8401V265.567ZM74.8401 264.567C74.8401 265.119 74.3924 265.567 73.8401 265.567V267.567C75.497 267.567 76.8401 266.224 76.8401 264.567H74.8401ZM101.881 126.262H91.9189V128.262H101.881V126.262ZM102.881 125.262C102.881 125.814 102.434 126.262 101.881 126.262V128.262C103.538 128.262 104.881 126.919 104.881 125.262H102.881ZM102.881 124.654V125.262H104.881V124.654H102.881ZM105.881 121.654C104.224 121.654 102.881 122.997 102.881 124.654H104.881C104.881 124.102 105.329 123.654 105.881 123.654V121.654ZM121.163 121.654H105.881V123.654H121.163V121.654ZM124.163 124.654C124.163 122.997 122.82 121.654 121.163 121.654V123.654C121.715 123.654 122.163 124.102 122.163 124.654H124.163ZM124.163 135.799V124.654H122.163V135.799H124.163ZM121.168 138.793C122.822 138.793 124.163 137.453 124.163 135.799H122.163C122.163 136.348 121.717 136.793 121.168 136.793V138.793ZM120.174 139.788C120.174 139.239 120.619 138.793 121.168 138.793V136.793C119.514 136.793 118.174 138.134 118.174 139.788H120.174ZM120.174 149.622V139.788H118.174V149.622H120.174ZM121.168 150.616C120.619 150.616 120.174 150.171 120.174 149.622H118.174C118.174 151.275 119.514 152.616 121.168 152.616V150.616ZM124.163 153.611C124.163 151.957 122.822 150.616 121.168 150.616V152.616C121.717 152.616 122.163 153.061 122.163 153.611H124.163ZM124.163 163.439V153.611H122.163V163.439H124.163ZM121.163 166.439C122.82 166.439 124.163 165.096 124.163 163.439H122.163C122.163 163.991 121.715 164.439 121.163 164.439V166.439ZM106.546 166.439H121.163V164.439H106.546V166.439ZM103.546 163.439C103.546 165.096 104.889 166.439 106.546 166.439V164.439C105.994 164.439 105.546 163.991 105.546 163.439H103.546ZM103.546 162.173V163.439H105.546V162.173H103.546ZM102.546 161.173C103.099 161.173 103.546 161.621 103.546 162.173H105.546C105.546 160.516 104.203 159.173 102.546 159.173V161.173ZM91.254 161.173H102.546V159.173H91.254V161.173ZM90.254 162.173C90.254 161.621 90.7017 161.173 91.254 161.173V159.173C89.5972 159.173 88.254 160.516 88.254 162.173H90.254ZM90.254 163.439V162.173H88.254V163.439H90.254ZM87.254 166.439C88.9109 166.439 90.254 165.096 90.254 163.439H88.254C88.254 163.991 87.8063 164.439 87.254 164.439V166.439ZM73.3023 166.439H87.254V164.439H73.3023V166.439ZM70.3023 163.439C70.3023 165.096 71.6455 166.439 73.3023 166.439V164.439C72.75 164.439 72.3023 163.991 72.3023 163.439H70.3023ZM70.3023 153.616V163.439H72.3023V153.616H70.3023ZM73.3023 150.616C71.6455 150.616 70.3023 151.959 70.3023 153.616H72.3023C72.3023 153.064 72.75 152.616 73.3023 152.616V150.616ZM73.9565 150.616H73.3023V152.616H73.9565V150.616ZM74.9565 149.616C74.9565 150.168 74.5088 150.616 73.9565 150.616V152.616C75.6133 152.616 76.9565 151.273 76.9565 149.616H74.9565ZM74.9565 139.793V149.616H76.9565V139.793H74.9565ZM73.9565 138.793C74.5088 138.793 74.9565 139.241 74.9565 139.793H76.9565C76.9565 138.136 75.6133 136.793 73.9565 136.793V138.793ZM73.3023 138.793H73.9565V136.793H73.3023V138.793ZM70.3023 135.793C70.3023 137.45 71.6455 138.793 73.3023 138.793V136.793C72.75 136.793 72.3023 136.346 72.3023 135.793H70.3023ZM70.3023 124.654V135.793H72.3023V124.654H70.3023ZM73.3023 121.654C71.6455 121.654 70.3023 122.997 70.3023 124.654H72.3023C72.3023 124.102 72.75 123.654 73.3023 123.654V121.654ZM87.9189 121.654H73.3023V123.654H87.9189V121.654ZM90.9189 124.654C90.9189 122.997 89.5758 121.654 87.9189 121.654V123.654C88.4712 123.654 88.9189 124.102 88.9189 124.654H90.9189ZM90.9189 125.262V124.654H88.9189V125.262H90.9189ZM91.9189 126.262C91.3666 126.262 90.9189 125.814 90.9189 125.262H88.9189C88.9189 126.919 90.2621 128.262 91.9189 128.262V126.262ZM89.1017 125.302V125.84H91.1017V125.302H89.1017ZM104.715 125.84V125.302H102.715V125.84H104.715ZM122.163 128.488V136.267H124.163V128.488H122.163ZM122.163 153.122V160.736H124.163V153.122H122.163ZM73.9506 152.177H74.4884V150.177H73.9506V152.177ZM74.4884 137.212H73.9506V139.212H74.4884V137.212ZM95.9084 87V127.262H97.9084V87H95.9084ZM118.273 140.157V144.695H120.273V140.157H118.273ZM118.273 144.695V149.233H120.273V144.695H118.273ZM119.273 145.695H160.113V143.695H119.273V145.695ZM75.9565 143.695H35.6483V145.695H75.9565V143.695ZM102.419 159.901H97.2326V161.901H102.419V159.901ZM97.2326 159.901H92.0465V161.901H97.2326V159.901ZM96.2326 160.909L96.5567 202.397L98.5567 202.382L98.2325 160.893L96.2326 160.909ZM74.4884 139.212C74.6626 139.212 74.8236 139.256 74.9641 139.332L75.9183 137.574C75.4922 137.343 75.0041 137.212 74.4884 137.212V139.212ZM74.4884 152.177C75.0252 152.177 75.5319 152.035 75.9699 151.786L74.9813 150.048C74.8367 150.13 74.6695 150.177 74.4884 150.177V152.177ZM73.2392 152.474C73.4217 152.29 73.672 152.177 73.9506 152.177V150.177C73.1159 150.177 72.3594 150.519 71.8166 151.069L73.2392 152.474ZM89.1017 162.846C89.1017 163.251 88.8459 163.6 88.4836 163.733L89.1751 165.61C90.2982 165.196 91.1017 164.116 91.1017 162.846H89.1017ZM91.1017 162.846C91.1017 162.324 91.5247 161.901 92.0465 161.901V159.901C90.4202 159.901 89.1017 161.22 89.1017 162.846H91.1017ZM105.363 162.846C105.363 161.22 104.045 159.901 102.419 159.901V161.901C102.94 161.901 103.363 162.324 103.363 162.846H105.363ZM105.46 163.264C105.399 163.139 105.363 162.998 105.363 162.846H103.363C103.363 163.312 103.473 163.756 103.668 164.151L105.46 163.264ZM121.218 152.177C121.74 152.177 122.163 152.6 122.163 153.122H124.163C124.163 151.496 122.844 150.177 121.218 150.177V152.177ZM121.218 150.177C120.696 150.177 120.273 149.754 120.273 149.233H118.273C118.273 150.859 119.592 152.177 121.218 152.177V150.177ZM121.218 137.212C119.592 137.212 118.273 138.531 118.273 140.157H120.273C120.273 139.635 120.696 139.212 121.218 139.212V137.212ZM122.163 136.267C122.163 136.789 121.74 137.212 121.218 137.212V139.212C122.844 139.212 124.163 137.894 124.163 136.267H122.163ZM104.715 125.302C104.715 125.155 104.746 125.018 104.801 124.895L102.975 124.079C102.808 124.454 102.715 124.869 102.715 125.302H104.715ZM102.715 125.84C102.715 125.885 102.712 125.928 102.707 125.97L104.69 126.225C104.707 126.099 104.715 125.97 104.715 125.84H102.715ZM89.1017 125.84C89.1017 125.996 89.1137 126.149 89.1369 126.3L91.1135 125.995C91.1058 125.945 91.1017 125.893 91.1017 125.84H89.1017ZM89.0053 124.873C89.0668 125.002 89.1017 125.147 89.1017 125.302H91.1017C91.1017 124.842 90.9975 124.404 90.8103 124.011L89.0053 124.873ZM71.8683 138.372C72.4069 138.891 73.1423 139.212 73.9506 139.212V137.212C73.6806 137.212 73.4374 137.107 73.2566 136.932L71.8683 138.372Z" fill="black"/>
</g>
<g filter="url(#filter5_di_1_2)">
<path fill-rule="evenodd" clip-rule="evenodd" d="M275.503 264.567V262.029C275.503 261.313 274.922 260.733 274.206 260.733C273.49 260.733 272.91 260.152 272.91 259.436V199.852C272.91 198.747 273.805 197.852 274.91 197.852H288.413C289.517 197.852 290.413 198.747 290.413 199.852V200.39C290.413 201.494 291.308 202.39 292.413 202.39H297.219H302.026C303.131 202.39 304.026 201.494 304.026 200.39V199.852C304.026 198.747 304.945 197.854 306.05 197.828C345.078 196.898 355.032 169.067 355.265 153.253C355.282 152.116 356.186 151.177 357.323 151.177H357.776C358.881 151.177 359.776 150.282 359.776 149.177V144.695V140.212C359.776 139.108 358.881 138.212 357.776 138.212H357.188C356.104 138.212 355.219 137.324 355.162 136.24C353.188 98.6579 322.688 90.6915 305.551 91.3968C304.377 91.4451 303.378 90.5254 303.378 89.3503V89C303.378 87.8954 302.482 87 301.378 87H296.571H291.765C290.66 87 289.765 87.8954 289.765 89V89.5126C289.765 90.627 288.83 91.5236 287.716 91.5383C249.68 92.0401 240.02 120.13 239.82 136.138C239.806 137.274 238.902 138.212 237.765 138.212H237.311C236.206 138.212 235.311 139.108 235.311 140.212V144.695V149.177C235.311 150.282 236.206 151.177 237.311 151.177H237.849C238.953 151.177 239.849 152.073 239.849 153.177V258.733C239.849 259.837 238.953 260.733 237.849 260.733H236.663C235.558 260.733 234.663 261.628 234.663 262.733V264.567C234.663 265.671 235.558 266.567 236.663 266.567H273.503C274.607 266.567 275.503 265.671 275.503 264.567ZM291.582 127.262H301.544C302.649 127.262 303.544 126.366 303.544 125.262V124.654C303.544 123.549 304.44 122.654 305.544 122.654H320.826C321.93 122.654 322.826 123.549 322.826 124.654V135.799C322.826 136.9 321.933 137.793 320.831 137.793C319.729 137.793 318.836 138.686 318.836 139.788V149.622C318.836 150.723 319.729 151.616 320.831 151.616C321.933 151.616 322.826 152.509 322.826 153.611V163.439C322.826 164.544 321.93 165.439 320.826 165.439H306.209C305.104 165.439 304.209 164.544 304.209 163.439V162.173C304.209 161.069 303.314 160.173 302.209 160.173H290.917C289.812 160.173 288.917 161.069 288.917 162.173V163.439C288.917 164.544 288.021 165.439 286.917 165.439H272.965C271.861 165.439 270.965 164.544 270.965 163.439V153.616C270.965 152.512 271.861 151.616 272.965 151.616H273.619C274.724 151.616 275.619 150.721 275.619 149.616V139.793C275.619 138.689 274.724 137.793 273.619 137.793H272.965C271.861 137.793 270.965 136.898 270.965 135.793V124.654C270.965 123.549 271.861 122.654 272.965 122.654H287.582C288.686 122.654 289.582 123.549 289.582 124.654V125.262C289.582 126.366 290.477 127.262 291.582 127.262Z" fill="#FB7D6F"/>
<path d="M306.05 197.828L306.026 196.828L306.05 197.828ZM355.265 153.253L354.265 153.238L355.265 153.253ZM355.162 136.24L356.16 136.188V136.188L355.162 136.24ZM305.551 91.3968L305.593 92.3959L305.551 91.3968ZM287.716 91.5383L287.729 92.5382L287.716 91.5383ZM239.82 136.138L238.82 136.125L239.82 136.138ZM274.503 262.029V264.567H276.503V262.029H274.503ZM274.206 261.733C274.37 261.733 274.503 261.865 274.503 262.029H276.503C276.503 260.761 275.475 259.733 274.206 259.733V261.733ZM271.91 259.436C271.91 260.704 272.938 261.733 274.206 261.733V259.733C274.043 259.733 273.91 259.6 273.91 259.436H271.91ZM271.91 199.852V259.436H273.91V199.852H271.91ZM274.91 196.852C273.253 196.852 271.91 198.195 271.91 199.852H273.91C273.91 199.299 274.358 198.852 274.91 198.852V196.852ZM288.413 196.852H274.91V198.852H288.413V196.852ZM291.413 199.852C291.413 198.195 290.07 196.852 288.413 196.852V198.852C288.965 198.852 289.413 199.299 289.413 199.852H291.413ZM291.413 200.39V199.852H289.413V200.39H291.413ZM292.413 201.39C291.86 201.39 291.413 200.942 291.413 200.39H289.413C289.413 202.046 290.756 203.39 292.413 203.39V201.39ZM297.219 201.39H292.413V203.39H297.219V201.39ZM302.026 201.39H297.219V203.39H302.026V201.39ZM303.026 200.39C303.026 200.942 302.578 201.39 302.026 201.39V203.39C303.683 203.39 305.026 202.046 305.026 200.39H303.026ZM303.026 199.852V200.39H305.026V199.852H303.026ZM306.026 196.828C304.409 196.867 303.026 198.174 303.026 199.852H305.026C305.026 199.32 305.481 198.842 306.073 198.828L306.026 196.828ZM354.265 153.238C354.151 160.973 351.655 171.65 344.431 180.489C337.237 189.293 325.277 196.37 306.026 196.828L306.073 198.828C325.85 198.357 338.381 191.054 345.98 181.755C353.549 172.493 356.146 161.348 356.265 153.268L354.265 153.238ZM357.323 150.177C355.61 150.177 354.289 151.584 354.265 153.238L356.265 153.268C356.274 152.647 356.762 152.177 357.323 152.177V150.177ZM357.776 150.177H357.323V152.177H357.776V150.177ZM358.776 149.177C358.776 149.73 358.328 150.177 357.776 150.177V152.177C359.433 152.177 360.776 150.834 360.776 149.177H358.776ZM358.776 144.695V149.177H360.776V144.695H358.776ZM358.776 140.212V144.695H360.776V140.212H358.776ZM357.776 139.212C358.328 139.212 358.776 139.66 358.776 140.212H360.776C360.776 138.555 359.433 137.212 357.776 137.212V139.212ZM357.188 139.212H357.776V137.212H357.188V139.212ZM354.163 136.293C354.246 137.875 355.54 139.212 357.188 139.212V137.212C356.667 137.212 356.191 136.772 356.16 136.188L354.163 136.293ZM305.593 92.3959C314.014 92.0493 325.699 93.8399 335.492 100.296C345.234 106.717 353.192 117.81 354.163 136.293L356.16 136.188C355.157 117.088 346.879 105.406 336.593 98.6258C326.358 91.8789 314.226 90.0389 305.51 90.3976L305.593 92.3959ZM302.378 89.3503C302.378 91.1189 303.876 92.4666 305.593 92.3959L305.51 90.3976C304.879 90.4236 304.378 89.9319 304.378 89.3503H302.378ZM302.378 89V89.3503H304.378V89H302.378ZM301.378 88C301.93 88 302.378 88.4477 302.378 89H304.378C304.378 87.3431 303.035 86 301.378 86V88ZM296.571 88H301.378V86H296.571V88ZM291.765 88H296.571V86H291.765V88ZM290.765 89C290.765 88.4477 291.212 88 291.765 88V86C290.108 86 288.765 87.3431 288.765 89H290.765ZM290.765 89.5126V89H288.765V89.5126H290.765ZM287.729 92.5382C289.359 92.5167 290.765 91.2053 290.765 89.5126H288.765C288.765 90.0486 288.302 90.5304 287.703 90.5383L287.729 92.5382ZM240.82 136.15C240.918 128.31 243.338 117.517 250.363 108.644C257.356 99.812 268.988 92.7854 287.729 92.5382L287.703 90.5383C268.408 90.7929 256.191 98.0621 248.795 107.402C241.432 116.702 238.922 127.957 238.82 136.125L240.82 136.15ZM237.765 139.212C239.477 139.212 240.8 137.806 240.82 136.15L238.82 136.125C238.813 136.743 238.326 137.212 237.765 137.212V139.212ZM237.311 139.212H237.765V137.212H237.311V139.212ZM236.311 140.212C236.311 139.66 236.759 139.212 237.311 139.212V137.212C235.654 137.212 234.311 138.555 234.311 140.212H236.311ZM236.311 144.695V140.212H234.311V144.695H236.311ZM236.311 149.177V144.695H234.311V149.177H236.311ZM237.311 150.177C236.759 150.177 236.311 149.73 236.311 149.177H234.311C234.311 150.834 235.654 152.177 237.311 152.177V150.177ZM237.849 150.177H237.311V152.177H237.849V150.177ZM240.849 153.177C240.849 151.52 239.506 150.177 237.849 150.177V152.177C238.401 152.177 238.849 152.625 238.849 153.177H240.849ZM240.849 258.733V153.177H238.849V258.733H240.849ZM237.849 261.733C239.506 261.733 240.849 260.389 240.849 258.733H238.849C238.849 259.285 238.401 259.733 237.849 259.733V261.733ZM236.663 261.733H237.849V259.733H236.663V261.733ZM235.663 262.733C235.663 262.18 236.11 261.733 236.663 261.733V259.733C235.006 259.733 233.663 261.076 233.663 262.733H235.663ZM235.663 264.567V262.733H233.663V264.567H235.663ZM236.663 265.567C236.11 265.567 235.663 265.119 235.663 264.567H233.663C233.663 266.224 235.006 267.567 236.663 267.567V265.567ZM273.503 265.567H236.663V267.567H273.503V265.567ZM274.503 264.567C274.503 265.119 274.055 265.567 273.503 265.567V267.567C275.16 267.567 276.503 266.224 276.503 264.567H274.503ZM301.544 126.262H291.582V128.262H301.544V126.262ZM302.544 125.262C302.544 125.814 302.096 126.262 301.544 126.262V128.262C303.201 128.262 304.544 126.919 304.544 125.262H302.544ZM302.544 124.654V125.262H304.544V124.654H302.544ZM305.544 121.654C303.887 121.654 302.544 122.997 302.544 124.654H304.544C304.544 124.102 304.992 123.654 305.544 123.654V121.654ZM320.826 121.654H305.544V123.654H320.826V121.654ZM323.826 124.654C323.826 122.997 322.482 121.654 320.826 121.654V123.654C321.378 123.654 321.826 124.102 321.826 124.654H323.826ZM323.826 135.799V124.654H321.826V135.799H323.826ZM320.831 138.793C322.485 138.793 323.826 137.453 323.826 135.799H321.826C321.826 136.348 321.38 136.793 320.831 136.793V138.793ZM319.836 139.788C319.836 139.239 320.282 138.793 320.831 138.793V136.793C319.177 136.793 317.836 138.134 317.836 139.788H319.836ZM319.836 149.622V139.788H317.836V149.622H319.836ZM320.831 150.616C320.282 150.616 319.836 150.171 319.836 149.622H317.836C317.836 151.275 319.177 152.616 320.831 152.616V150.616ZM323.826 153.611C323.826 151.957 322.485 150.616 320.831 150.616V152.616C321.38 152.616 321.826 153.061 321.826 153.611H323.826ZM323.826 163.439V153.611H321.826V163.439H323.826ZM320.826 166.439C322.482 166.439 323.826 165.096 323.826 163.439H321.826C321.826 163.991 321.378 164.439 320.826 164.439V166.439ZM306.209 166.439H320.826V164.439H306.209V166.439ZM303.209 163.439C303.209 165.096 304.552 166.439 306.209 166.439V164.439C305.657 164.439 305.209 163.991 305.209 163.439H303.209ZM303.209 162.173V163.439H305.209V162.173H303.209ZM302.209 161.173C302.761 161.173 303.209 161.621 303.209 162.173H305.209C305.209 160.516 303.866 159.173 302.209 159.173V161.173ZM290.917 161.173H302.209V159.173H290.917V161.173ZM289.917 162.173C289.917 161.621 290.365 161.173 290.917 161.173V159.173C289.26 159.173 287.917 160.516 287.917 162.173H289.917ZM289.917 163.439V162.173H287.917V163.439H289.917ZM286.917 166.439C288.574 166.439 289.917 165.096 289.917 163.439H287.917C287.917 163.991 287.469 164.439 286.917 164.439V166.439ZM272.965 166.439H286.917V164.439H272.965V166.439ZM269.965 163.439C269.965 165.096 271.308 166.439 272.965 166.439V164.439C272.413 164.439 271.965 163.991 271.965 163.439H269.965ZM269.965 153.616V163.439H271.965V153.616H269.965ZM272.965 150.616C271.308 150.616 269.965 151.959 269.965 153.616H271.965C271.965 153.064 272.413 152.616 272.965 152.616V150.616ZM273.619 150.616H272.965V152.616H273.619V150.616ZM274.619 149.616C274.619 150.168 274.172 150.616 273.619 150.616V152.616C275.276 152.616 276.619 151.273 276.619 149.616H274.619ZM274.619 139.793V149.616H276.619V139.793H274.619ZM273.619 138.793C274.172 138.793 274.619 139.241 274.619 139.793H276.619C276.619 138.136 275.276 136.793 273.619 136.793V138.793ZM272.965 138.793H273.619V136.793H272.965V138.793ZM269.965 135.793C269.965 137.45 271.308 138.793 272.965 138.793V136.793C272.413 136.793 271.965 136.346 271.965 135.793H269.965ZM269.965 124.654V135.793H271.965V124.654H269.965ZM272.965 121.654C271.308 121.654 269.965 122.997 269.965 124.654H271.965C271.965 124.102 272.413 123.654 272.965 123.654V121.654ZM287.582 121.654H272.965V123.654H287.582V121.654ZM290.582 124.654C290.582 122.997 289.239 121.654 287.582 121.654V123.654C288.134 123.654 288.582 124.102 288.582 124.654H290.582ZM290.582 125.262V124.654H288.582V125.262H290.582ZM291.582 126.262C291.029 126.262 290.582 125.814 290.582 125.262H288.582C288.582 126.919 289.925 128.262 291.582 128.262V126.262ZM288.765 125.302V125.84H290.765V125.302H288.765ZM304.378 125.84V125.302H302.378V125.84H304.378ZM321.826 128.488V136.267H323.826V128.488H321.826ZM321.826 153.122V160.736H323.826V153.122H321.826ZM273.613 152.177H274.151V150.177H273.613V152.177ZM274.151 137.212H273.613V139.212H274.151V137.212ZM295.571 87V127.262H297.571V87H295.571ZM317.936 140.157V144.695H319.936V140.157H317.936ZM317.936 144.695V149.233H319.936V144.695H317.936ZM318.936 145.695H359.776V143.695H318.936V145.695ZM275.619 143.695H235.311V145.695H275.619V143.695ZM302.081 159.901H296.895V161.901H302.081V159.901ZM296.895 159.901H291.709V161.901H296.895V159.901ZM295.895 160.909L296.219 202.397L298.219 202.382L297.895 160.893L295.895 160.909ZM274.151 139.212C274.325 139.212 274.486 139.256 274.627 139.332L275.581 137.574C275.155 137.343 274.667 137.212 274.151 137.212V139.212ZM274.151 152.177C274.688 152.177 275.195 152.035 275.633 151.786L274.644 150.048C274.499 150.13 274.332 150.177 274.151 150.177V152.177ZM272.902 152.474C273.084 152.29 273.335 152.177 273.613 152.177V150.177C272.779 150.177 272.022 150.519 271.479 151.069L272.902 152.474ZM288.765 162.846C288.765 163.251 288.509 163.6 288.146 163.733L288.838 165.61C289.961 165.196 290.765 164.116 290.765 162.846H288.765ZM290.765 162.846C290.765 162.324 291.188 161.901 291.709 161.901V159.901C290.083 159.901 288.765 161.22 288.765 162.846H290.765ZM305.026 162.846C305.026 161.22 303.708 159.901 302.081 159.901V161.901C302.603 161.901 303.026 162.324 303.026 162.846H305.026ZM305.123 163.264C305.061 163.139 305.026 162.998 305.026 162.846H303.026C303.026 163.312 303.135 163.756 303.331 164.151L305.123 163.264ZM320.881 152.177C321.403 152.177 321.826 152.6 321.826 153.122H323.826C323.826 151.496 322.507 150.177 320.881 150.177V152.177ZM320.881 150.177C320.359 150.177 319.936 149.754 319.936 149.233H317.936C317.936 150.859 319.254 152.177 320.881 152.177V150.177ZM320.881 137.212C319.254 137.212 317.936 138.531 317.936 140.157H319.936C319.936 139.635 320.359 139.212 320.881 139.212V137.212ZM321.826 136.267C321.826 136.789 321.403 137.212 320.881 137.212V139.212C322.507 139.212 323.826 137.894 323.826 136.267H321.826ZM304.378 125.302C304.378 125.155 304.409 125.018 304.464 124.895L302.638 124.079C302.471 124.454 302.378 124.869 302.378 125.302H304.378ZM302.378 125.84C302.378 125.885 302.375 125.928 302.37 125.97L304.353 126.226C304.37 126.099 304.378 125.97 304.378 125.84H302.378ZM288.765 125.84C288.765 125.996 288.776 126.149 288.8 126.3L290.776 125.995C290.769 125.945 290.765 125.893 290.765 125.84H288.765ZM288.668 124.873C288.73 125.002 288.765 125.147 288.765 125.302H290.765C290.765 124.842 290.66 124.404 290.473 124.011L288.668 124.873ZM271.531 138.372C272.07 138.891 272.805 139.212 273.613 139.212V137.212C273.343 137.212 273.1 137.107 272.919 136.932L271.531 138.372Z" fill="black"/>
</g>
<rect x="717" y="106" width="4" height="98" rx="1" fill="white" fill-opacity="0.72"/>
<rect x="602" y="156" width="3" height="97" rx="1" fill="white" fill-opacity="0.72"/>
<rect x="533.648" y="146.64" width="3.88953" height="72.0728" rx="1" transform="rotate(0.464111 533.648 146.64)" fill="white" fill-opacity="0.72"/>
<rect x="627" y="297" width="4" height="59" rx="1" transform="rotate(90 627 297)" fill="white" fill-opacity="0.72"/>
<rect x="485" y="294" width="4" height="60" rx="1" transform="rotate(90 485 294)" fill="white" fill-opacity="0.72"/>
<rect x="477" y="226" width="4" height="28" rx="1" transform="rotate(90 477 226)" fill="white" fill-opacity="0.72"/>
<rect x="484" y="154" width="4" height="59" rx="1" transform="rotate(90 484 154)" fill="white" fill-opacity="0.72"/>
<rect x="202" y="175" width="4" height="78" rx="1" fill="white" fill-opacity="0.72"/>
<rect x="262" y="211" width="4" height="50" rx="1" fill="white" fill-opacity="0.72"/>
<rect x="64" y="219" width="3" height="42" rx="1" fill="white" fill-opacity="0.72"/>
<rect x="202" y="258" width="4" height="17" rx="1" fill="white" fill-opacity="0.72"/>
<path d="M307 97C320.24 97.2164 346.975 104.919 348 134" stroke="white" stroke-opacity="0.73" stroke-width="2" stroke-linecap="round"/>
<path d="M126 102C141.158 104.56 150 123.12 150 134" stroke="white" stroke-opacity="0.73" stroke-width="2" stroke-linecap="round"/>
<defs>
<filter id="filter0_di_1_2" x="500" y="135" width="136" height="184" filterUnits="userSpaceOnUse" color-interpolation-filters="sRGB">
<feFlood flood-opacity="0" result="BackgroundImageFix"/>
<feColorMatrix in="SourceAlpha" type="matrix" values="0 0 0 0 0 0 0 0 0 0 0 0 0 0 0 0 0 0 127 0" result="hardAlpha"/>
<feOffset dy="4"/>
<feGaussianBlur stdDeviation="2"/>
<feComposite in2="hardAlpha" operator="out"/>
<feColorMatrix type="matrix" values="0 0 0 0 0 0 0 0 0 0 0 0 0 0 0 0 0 0 0.25 0"/>
<feBlend mode="normal" in2="BackgroundImageFix" result="effect1_dropShadow_1_2"/>
<feBlend mode="normal" in="SourceGraphic" in2="effect1_dropShadow_1_2" result="shape"/>
<feColorMatrix in="SourceAlpha" type="matrix" values="0 0 0 0 0 0 0 0 0 0 0 0 0 0 0 0 0 0 127 0" result="hardAlpha"/>
<feOffset dx="11" dy="5"/>
<feGaussianBlur stdDeviation="2"/>
<feComposite in2="hardAlpha" operator="arithmetic" k2="-1" k3="1"/>
<feColorMatrix type="matrix" values="0 0 0 0 0.423529 0 0 0 0 0.545098 0 0 0 0 0.588235 0 0 0 1 0"/>
<feBlend mode="normal" in2="shape" result="effect2_innerShadow_1_2"/>
</filter>
<filter id="filter1_di_1_2" x="169" y="120" width="51" height="196" filterUnits="userSpaceOnUse" color-interpolation-filters="sRGB">
<feFlood flood-opacity="0" result="BackgroundImageFix"/>
<feColorMatrix in="SourceAlpha" type="matrix" values="0 0 0 0 0 0 0 0 0 0 0 0 0 0 0 0 0 0 127 0" result="hardAlpha"/>
<feOffset dy="4"/>
<feGaussianBlur stdDeviation="2"/>
<feComposite in2="hardAlpha" operator="out"/>
<feColorMatrix type="matrix" values="0 0 0 0 0 0 0 0 0 0 0 0 0 0 0 0 0 0 0.25 0"/>
<feBlend mode="normal" in2="BackgroundImageFix" result="effect1_dropShadow_1_2"/>
<feBlend mode="normal" in="SourceGraphic" in2="effect1_dropShadow_1_2" result="shape"/>
<feColorMatrix in="SourceAlpha" type="matrix" values="0 0 0 0 0 0 0 0 0 0 0 0 0 0 0 0 0 0 127 0" result="hardAlpha"/>
<feOffset dx="11" dy="5"/>
<feGaussianBlur stdDeviation="2"/>
<feComposite in2="hardAlpha" operator="arithmetic" k2="-1" k3="1"/>
<feColorMatrix type="matrix" values="0 0 0 0 0.486275 0 0 0 0 0.643137 0 0 0 0 0.184314 0 0 0 1 0"/>
<feBlend mode="normal" in2="shape" result="effect2_innerShadow_1_2"/>
</filter>
<filter id="filter2_di_1_2" x="354" y="126" width="142" height="190" filterUnits="userSpaceOnUse" color-interpolation-filters="sRGB">
<feFlood flood-opacity="0" result="BackgroundImageFix"/>
<feColorMatrix in="SourceAlpha" type="matrix" values="0 0 0 0 0 0 0 0 0 0 0 0 0 0 0 0 0 0 127 0" result="hardAlpha"/>
<feOffset dy="4"/>
<feGaussianBlur stdDeviation="2"/>
<feComposite in2="hardAlpha" operator="out"/>
<feColorMatrix type="matrix" values="0 0 0 0 0 0 0 0 0 0 0 0 0 0 0 0 0 0 0.25 0"/>
<feBlend mode="normal" in2="BackgroundImageFix" result="effect1_dropShadow_1_2"/>
<feBlend mode="normal" in="SourceGraphic" in2="effect1_dropShadow_1_2" result="shape"/>
<feColorMatrix in="SourceAlpha" type="matrix" values="0 0 0 0 0 0 0 0 0 0 0 0 0 0 0 0 0 0 127 0" result="hardAlpha"/>
<feOffset dx="11" dy="5"/>
<feGaussianBlur stdDeviation="2"/>
<feComposite in2="hardAlpha" operator="arithmetic" k2="-1" k3="1"/>
<feColorMatrix type="matrix" values="0 0 0 0 0.729412 0 0 0 0 0.615686 0 0 0 0 0.0117647 0 0 0 1 0"/>
<feBlend mode="normal" in2="shape" result="effect2_innerShadow_1_2"/>
</filter>
<filter id="filter3_di_1_2" x="569" y="88.9997" width="167" height="182" filterUnits="userSpaceOnUse" color-interpolation-filters="sRGB">
<feFlood flood-opacity="0" result="BackgroundImageFix"/>
<feColorMatrix in="SourceAlpha" type="matrix" values="0 0 0 0 0 0 0 0 0 0 0 0 0 0 0 0 0 0 127 0" result="hardAlpha"/>
<feOffset dy="4"/>
<feGaussianBlur stdDeviation="2"/>
<feComposite in2="hardAlpha" operator="out"/>
<feColorMatrix type="matrix" values="0 0 0 0 0 0 0 0 0 0 0 0 0 0 0 0 0 0 0.25 0"/>
<feBlend mode="normal" in2="BackgroundImageFix" result="effect1_dropShadow_1_2"/>
<feBlend mode="normal" in="SourceGraphic" in2="effect1_dropShadow_1_2" result="shape"/>
<feColorMatrix in="SourceAlpha" type="matrix" values="0 0 0 0 0 0 0 0 0 0 0 0 0 0 0 0 0 0 127 0" result="hardAlpha"/>
<feOffset dx="9"/>
<feGaussianBlur stdDeviation="2"/>
<feComposite in2="hardAlpha" operator="arithmetic" k2="-1" k3="1"/>
<feColorMatrix type="matrix" values="0 0 0 0 0.666667 0 0 0 0 0.337255 0 0 0 0 0.152941 0 0 0 1 0"/>
<feBlend mode="normal" in2="shape" result="effect2_innerShadow_1_2"/>
</filter>
<filter id="filter4_di_1_2" x="30" y="86" width="135.113" height="189.567" filterUnits="userSpaceOnUse" color-interpolation-filters="sRGB">
<feFlood flood-opacity="0" result="BackgroundImageFix"/>
<feColorMatrix in="SourceAlpha" type="matrix" values="0 0 0 0 0 0 0 0 0 0 0 0 0 0 0 0 0 0 127 0" result="hardAlpha"/>
<feOffset dy="4"/>
<feGaussianBlur stdDeviation="2"/>
<feComposite in2="hardAlpha" operator="out"/>
<feColorMatrix type="matrix" values="0 0 0 0 0 0 0 0 0 0 0 0 0 0 0 0 0 0 0.25 0"/>
<feBlend mode="normal" in2="BackgroundImageFix" result="effect1_dropShadow_1_2"/>
<feBlend mode="normal" in="SourceGraphic" in2="effect1_dropShadow_1_2" result="shape"/>
<feColorMatrix in="SourceAlpha" type="matrix" values="0 0 0 0 0 0 0 0 0 0 0 0 0 0 0 0 0 0 127 0" result="hardAlpha"/>
<feOffset dx="11" dy="5"/>
<feGaussianBlur stdDeviation="2"/>
<feComposite in2="hardAlpha" operator="arithmetic" k2="-1" k3="1"/>
<feColorMatrix type="matrix" values="0 0 0 0 0.623529 0 0 0 0 0.301961 0 0 0 0 0.243137 0 0 0 1 0"/>
<feBlend mode="normal" in2="shape" result="effect2_innerShadow_1_2"/>
</filter>
<filter id="filter5_di_1_2" x="229.663" y="86" width="135.113" height="189.567" filterUnits="userSpaceOnUse" color-interpolation-filters="sRGB">
<feFlood flood-opacity="0" result="BackgroundImageFix"/>
<feColorMatrix in="SourceAlpha" type="matrix" values="0 0 0 0 0 0 0 0 0 0 0 0 0 0 0 0 0 0 127 0" result="hardAlpha"/>
<feOffset dy="4"/>
<feGaussianBlur stdDeviation="2"/>
<feComposite in2="hardAlpha" operator="out"/>
<feColorMatrix type="matrix" values="0 0 0 0 0 0 0 0 0 0 0 0 0 0 0 0 0 0 0.25 0"/>
<feBlend mode="normal" in2="BackgroundImageFix" result="effect1_dropShadow_1_2"/>
<feBlend mode="normal" in="SourceGraphic" in2="effect1_dropShadow_1_2" result="shape"/>
<feColorMatrix in="SourceAlpha" type="matrix" values="0 0 0 0 0 0 0 0 0 0 0 0 0 0 0 0 0 0 127 0" result="hardAlpha"/>
<feOffset dx="11" dy="5"/>
<feGaussianBlur stdDeviation="2"/>
<feComposite in2="hardAlpha" operator="arithmetic" k2="-1" k3="1"/>
<feColorMatrix type="matrix" values="0 0 0 0 0.721569 0 0 0 0 0.372549 0 0 0 0 0.337255 0 0 0 1 0"/>
<feBlend mode="normal" in2="shape" result="effect2_innerShadow_1_2"/>
</filter>
</defs>
</svg>
